<svg width="109" height="19" viewBox="0 0 109 19" fill="none" xmlns="http://www.w3.org/2000/svg">
<path d="M0.536 18V5.376H3.296L3.56 7.104H3.728C4 6.688 4.32 6.328 4.688 6.024C5.072 5.72 5.496 5.488 5.96 5.328C6.44 5.168 6.952 5.088 7.496 5.088C8.296 5.088 8.984 5.248 9.56 5.568C10.152 5.888 10.608 6.4 10.928 7.104H11.096C11.368 6.688 11.696 6.328 12.08 6.024C12.464 5.72 12.904 5.488 13.4 5.328C13.896 5.168 14.424 5.088 14.984 5.088C15.784 5.088 16.472 5.232 17.048 5.52C17.64 5.808 18.104 6.28 18.44 6.936C18.776 7.576 18.944 8.408 18.944 9.432V18H15.608V10.032C15.608 9.632 15.56 9.296 15.464 9.024C15.384 8.736 15.264 8.512 15.104 8.352C14.944 8.176 14.744 8.048 14.504 7.968C14.264 7.888 14.008 7.848 13.736 7.848C13.288 7.848 12.888 7.968 12.536 8.208C12.184 8.448 11.904 8.776 11.696 9.192C11.504 9.608 11.408 10.088 11.408 10.632V18H8.072V10.032C8.072 9.632 8.024 9.296 7.928 9.024C7.848 8.736 7.728 8.512 7.568 8.352C7.408 8.176 7.208 8.048 6.968 7.968C6.744 7.888 6.488 7.848 6.2 7.848C5.768 7.848 5.368 7.968 5 8.208C4.648 8.448 4.368 8.776 4.16 9.192C3.968 9.608 3.872 10.088 3.872 10.632V18H0.536ZM24.447 18.288C24.031 18.288 23.583 18.24 23.103 18.144C22.639 18.048 22.199 17.88 21.783 17.64C21.367 17.384 21.023 17.024 20.751 16.56C20.495 16.08 20.367 15.472 20.367 14.736C20.367 13.856 20.559 13.128 20.943 12.552C21.327 11.976 21.871 11.528 22.575 11.208C23.295 10.872 24.151 10.64 25.143 10.512C26.135 10.384 27.231 10.32 28.431 10.32V9.384C28.431 9.016 28.367 8.696 28.239 8.424C28.127 8.152 27.919 7.936 27.615 7.776C27.327 7.616 26.919 7.536 26.391 7.536C25.863 7.536 25.431 7.6 25.095 7.728C24.775 7.856 24.543 8.024 24.399 8.232C24.271 8.424 24.207 8.64 24.207 8.88V9.168H20.967C20.951 9.088 20.943 9.016 20.943 8.952C20.943 8.872 20.943 8.776 20.943 8.664C20.943 7.928 21.167 7.296 21.615 6.768C22.063 6.224 22.695 5.808 23.511 5.52C24.327 5.232 25.279 5.088 26.367 5.088C27.535 5.088 28.511 5.24 29.295 5.544C30.095 5.848 30.703 6.296 31.119 6.888C31.551 7.48 31.767 8.224 31.767 9.12V14.856C31.767 15.144 31.847 15.36 32.007 15.504C32.183 15.632 32.375 15.696 32.583 15.696H33.375V17.88C33.215 17.96 32.967 18.04 32.631 18.12C32.295 18.216 31.887 18.264 31.407 18.264C30.943 18.264 30.527 18.192 30.159 18.048C29.807 17.92 29.511 17.736 29.271 17.496C29.031 17.24 28.863 16.936 28.767 16.584H28.599C28.327 16.92 27.991 17.216 27.591 17.472C27.207 17.728 26.751 17.928 26.223 18.072C25.711 18.216 25.119 18.288 24.447 18.288ZM25.575 15.768C26.023 15.768 26.423 15.704 26.775 15.576C27.127 15.432 27.423 15.248 27.663 15.024C27.903 14.784 28.087 14.496 28.215 14.16C28.359 13.824 28.431 13.464 28.431 13.08V12.384C27.535 12.384 26.735 12.448 26.031 12.576C25.327 12.688 24.767 12.888 24.351 13.176C23.951 13.464 23.751 13.864 23.751 14.376C23.751 14.664 23.823 14.912 23.967 15.12C24.111 15.328 24.319 15.488 24.591 15.6C24.863 15.712 25.191 15.768 25.575 15.768ZM33.2489 18V16.584L39.4169 7.944H33.6329V5.376H44.2409V6.744L38.0489 15.408H44.4809V18H33.2489ZM51.2174 18.288C49.8414 18.288 48.6734 18.056 47.7134 17.592C46.7534 17.112 46.0254 16.384 45.5294 15.408C45.0334 14.416 44.7854 13.176 44.7854 11.688C44.7854 10.168 45.0334 8.928 45.5294 7.968C46.0254 6.992 46.7534 6.272 47.7134 5.808C48.6734 5.328 49.8414 5.088 51.2174 5.088C52.6254 5.088 53.8014 5.328 54.7454 5.808C55.7054 6.272 56.4334 6.992 56.9294 7.968C57.4254 8.928 57.6734 10.168 57.6734 11.688C57.6734 13.176 57.4254 14.416 56.9294 15.408C56.4334 16.384 55.7054 17.112 54.7454 17.592C53.8014 18.056 52.6254 18.288 51.2174 18.288ZM51.2174 15.696C51.9534 15.696 52.5374 15.56 52.9694 15.288C53.4174 15.016 53.7454 14.6 53.9534 14.04C54.1614 13.48 54.2654 12.792 54.2654 11.976V11.4C54.2654 10.584 54.1614 9.896 53.9534 9.336C53.7454 8.776 53.4174 8.36 52.9694 8.088C52.5374 7.8 51.9534 7.656 51.2174 7.656C50.4974 7.656 49.9134 7.8 49.4654 8.088C49.0334 8.36 48.7134 8.776 48.5054 9.336C48.2974 9.896 48.1934 10.584 48.1934 11.4V11.976C48.1934 12.792 48.2974 13.48 48.5054 14.04C48.7134 14.6 49.0334 15.016 49.4654 15.288C49.9134 15.56 50.4974 15.696 51.2174 15.696ZM59.9042 18V7.944H58.1042V5.376H59.9042V3.984C59.9042 3.296 60.0162 2.688 60.2402 2.16C60.4802 1.616 60.8562 1.192 61.3682 0.887999C61.8802 0.583999 62.5602 0.431999 63.4082 0.431999C63.6482 0.431999 63.8962 0.447999 64.1522 0.48C64.4242 0.511999 64.6802 0.559999 64.9202 0.623999C65.1762 0.671999 65.3922 0.728 65.5682 0.792V3H64.3682C63.9842 3 63.6962 3.096 63.5042 3.288C63.3282 3.48 63.2402 3.76 63.2402 4.128V5.376H65.5682V7.944H63.2402V18H59.9042ZM71.9517 18.288C70.5597 18.288 69.3917 18.056 68.4477 17.592C67.5037 17.112 66.7917 16.384 66.3117 15.408C65.8317 14.432 65.5917 13.192 65.5917 11.688C65.5917 10.168 65.8317 8.928 66.3117 7.968C66.7917 6.992 67.4957 6.272 68.4237 5.808C69.3677 5.328 70.5197 5.088 71.8797 5.088C73.1597 5.088 74.2397 5.32 75.1197 5.784C75.9997 6.232 76.6637 6.936 77.1117 7.896C77.5597 8.84 77.7837 10.064 77.7837 11.568V12.432H68.9757C69.0077 13.168 69.1197 13.792 69.3117 14.304C69.5197 14.816 69.8317 15.2 70.2477 15.456C70.6797 15.696 71.2477 15.816 71.9517 15.816C72.3357 15.816 72.6797 15.768 72.9837 15.672C73.3037 15.576 73.5757 15.432 73.7997 15.24C74.0237 15.048 74.1997 14.808 74.3277 14.52C74.4557 14.232 74.5197 13.904 74.5197 13.536H77.7837C77.7837 14.336 77.6397 15.032 77.3517 15.624C77.0637 16.216 76.6637 16.712 76.1517 17.112C75.6397 17.496 75.0237 17.792 74.3037 18C73.5997 18.192 72.8157 18.288 71.9517 18.288ZM69.0237 10.32H74.3517C74.3517 9.84 74.2877 9.424 74.1597 9.072C74.0477 8.72 73.8877 8.432 73.6797 8.208C73.4717 7.984 73.2157 7.824 72.9117 7.728C72.6237 7.616 72.2957 7.56 71.9277 7.56C71.3197 7.56 70.8077 7.664 70.3917 7.872C69.9917 8.064 69.6797 8.368 69.4557 8.784C69.2477 9.184 69.1037 9.696 69.0237 10.32ZM79.4313 3.528V0.647999H82.7673V3.528H79.4313ZM79.4313 18V5.376H82.7673V18H79.4313ZM85.6058 18V7.944H83.8058V5.376H85.6058V3.984C85.6058 3.296 85.7178 2.688 85.9418 2.16C86.1818 1.616 86.5578 1.192 87.0698 0.887999C87.5818 0.583999 88.2618 0.431999 89.1098 0.431999C89.3498 0.431999 89.5978 0.447999 89.8538 0.48C90.1258 0.511999 90.3818 0.559999 90.6218 0.623999C90.8778 0.671999 91.0938 0.728 91.2698 0.792V3H90.0698C89.6858 3 89.3978 3.096 89.2058 3.288C89.0298 3.48 88.9418 3.76 88.9418 4.128V5.376H91.2698V7.944H88.9418V18H85.6058ZM95.2532 18.288C94.8372 18.288 94.3892 18.24 93.9092 18.144C93.4452 18.048 93.0052 17.88 92.5892 17.64C92.1732 17.384 91.8292 17.024 91.5572 16.56C91.3012 16.08 91.1732 15.472 91.1732 14.736C91.1732 13.856 91.3652 13.128 91.7492 12.552C92.1332 11.976 92.6772 11.528 93.3812 11.208C94.1012 10.872 94.9572 10.64 95.9492 10.512C96.9412 10.384 98.0372 10.32 99.2372 10.32V9.384C99.2372 9.016 99.1732 8.696 99.0452 8.424C98.9332 8.152 98.7252 7.936 98.4212 7.776C98.1332 7.616 97.7252 7.536 97.1972 7.536C96.6692 7.536 96.2372 7.6 95.9012 7.728C95.5812 7.856 95.3492 8.024 95.2052 8.232C95.0772 8.424 95.0132 8.64 95.0132 8.88V9.168H91.7732C91.7572 9.088 91.7492 9.016 91.7492 8.952C91.7492 8.872 91.7492 8.776 91.7492 8.664C91.7492 7.928 91.9732 7.296 92.4212 6.768C92.8692 6.224 93.5012 5.808 94.3172 5.52C95.1332 5.232 96.0852 5.088 97.1732 5.088C98.3412 5.088 99.3172 5.24 100.101 5.544C100.901 5.848 101.509 6.296 101.925 6.888C102.357 7.48 102.573 8.224 102.573 9.12V14.856C102.573 15.144 102.653 15.36 102.813 15.504C102.989 15.632 103.181 15.696 103.389 15.696H104.181V17.88C104.021 17.96 103.773 18.04 103.437 18.12C103.101 18.216 102.693 18.264 102.213 18.264C101.749 18.264 101.333 18.192 100.965 18.048C100.613 17.92 100.317 17.736 100.077 17.496C99.8372 17.24 99.6692 16.936 99.5732 16.584H99.4052C99.1332 16.92 98.7972 17.216 98.3972 17.472C98.0132 17.728 97.5572 17.928 97.0292 18.072C96.5172 18.216 95.9252 18.288 95.2532 18.288ZM96.3812 15.768C96.8292 15.768 97.2292 15.704 97.5812 15.576C97.9332 15.432 98.2292 15.248 98.4692 15.024C98.7092 14.784 98.8932 14.496 99.0212 14.16C99.1652 13.824 99.2372 13.464 99.2372 13.08V12.384C98.3412 12.384 97.5412 12.448 96.8372 12.576C96.1332 12.688 95.5732 12.888 95.1572 13.176C94.7572 13.464 94.5572 13.864 94.5572 14.376C94.5572 14.664 94.6292 14.912 94.7732 15.12C94.9172 15.328 95.1252 15.488 95.3972 15.6C95.6692 15.712 95.9972 15.768 96.3812 15.768ZM105.447 18V14.568H108.927V18H105.447Z" fill="#FFFCF5"/>
</svg>
